# xmcd CD database file
# Copyright (C) 1993-1998 Ti Kan
#
# Track frame offsets:
# 150
# 14585
# 30477
# 45267
# 59362
# 72907
# 85400
# 98755
# 110385
# 126452
# 139505
# 150047
# 163790
# 174087
# 190980
# 205887
#
# Disc length: 2941 seconds
# Revision: 0
# Processed by: cddbd v1.4b41PL1 Copyright (c) Steve Scherf et al.
# Submitted via: CDSpectrumPro v3.3.333
#
DISCID=ca0b7b10
DTITLE=Various Artist - Australian Country Collection V2
DYEAR=1900
DGENRE=
TTITLE0=The Hawking Brothers - The Wild Colonial Boy
TTITLE1=Johnny Chester - Highway 31
TTITLE2=The Bushwackers Band - Lachlan Tigers
TTITLE3=Lee Conway - Amanda
TTITLE4=Bill and Boyd - Aussie
TTITLE5=Bobby and Laurie - Had To Leave Her
TTITLE6=Lee and Christine Conway - No Memories Hangin' Round
TTITLE7=Cash Backman - He'll Have To Go
TTITLE8=The Hawking Brothers - Click Go The Shears
TTITLE9=Johnny Chester - Gwen (Congratulations)
TTITLE10=Bobby and Laurie - The Train Of Love
TTITLE11=John Williamson - Comic Strip Cowboy
TTITLE12=Bill and Boyd - Country Wine
TTITLE13=Johnny Chester - Gotta Get Back To Tamworth
TTITLE14=Cash Backman - Jenny (You're The Best Friend)
TTITLE15=The Bushwackers Band - Waltzing Matilda
EXTD=
EXTT0=
EXTT1=
EXTT2=
EXTT3=
EXTT4=
EXTT5=
EXTT6=
EXTT7=
EXTT8=
EXTT9=
EXTT10=
EXTT11=
EXTT12=
EXTT13=
EXTT14=
EXTT15=
PLAYORDER=
